<svg width="24" height="24" viewBox="0 0 24 24" fill="none" xmlns="http://www.w3.org/2000/svg">
<path fill-rule="evenodd" clip-rule="evenodd" d="M7.90909 4.63636C6.10161 4.63636 4.63636 6.10161 4.63636 7.90909V16.0909C4.63636 17.8984 6.10161 19.3636 7.90909 19.3636H16.0909C17.8984 19.3636 19.3636 17.8984 19.3636 16.0909V7.90909C19.3636 6.10161 17.8984 4.63636 16.0909 4.63636H7.90909ZM3 7.90909C3 5.19788 5.19788 3 7.90909 3H16.0909C18.8021 3 21 5.19788 21 7.90909V16.0909C21 18.8021 18.8021 21 16.0909 21H7.90909C5.19788 21 3 18.8021 3 16.0909V7.90909ZM12.4104 9.23213C11.8282 9.14579 11.2337 9.24524 10.7112 9.51631C10.1888 9.78738 9.76517 10.2163 9.50056 10.742C9.23595 11.2677 9.14384 11.8635 9.23735 12.4446C9.33085 13.0257 9.6052 13.5625 10.0214 13.9787C10.4376 14.3948 10.9744 14.6692 11.5554 14.7627C12.1365 14.8562 12.7323 14.7641 13.258 14.4995C13.7837 14.2349 14.2126 13.8112 14.4837 13.2888C14.7548 12.7664 14.8542 12.1718 14.7679 11.5896C14.6798 10.9957 14.4031 10.4459 13.9786 10.0214C13.5541 9.59691 13.0043 9.32019 12.4104 9.23213ZM9.85206 7.86049C10.7228 7.4087 11.7137 7.24296 12.6841 7.38685C13.6738 7.53362 14.5902 7.99483 15.2977 8.70235C16.0052 9.40988 16.4664 10.3262 16.6132 11.316C16.7571 12.2863 16.5913 13.2773 16.1395 14.148C15.6877 15.0187 14.9729 15.7247 14.0967 16.1658C13.2205 16.6068 12.2276 16.7603 11.2591 16.6044C10.2906 16.4486 9.39593 15.9914 8.7023 15.2977C8.00868 14.6041 7.55143 13.7094 7.39559 12.741C7.23975 11.7725 7.39325 10.7795 7.83427 9.90332C8.27529 9.02711 8.98136 8.31228 9.85206 7.86049ZM16.8216 6.02723C16.1921 6.02723 15.6818 6.54007 15.6818 7.17269C15.6818 7.8053 16.1921 8.31814 16.8216 8.31814H16.833C17.4624 8.31814 17.9727 7.8053 17.9727 7.17269C17.9727 6.54007 17.4624 6.02723 16.833 6.02723H16.8216Z" fill="#F7F7F7"/>
</svg>
