<svg width="24" height="24" viewBox="0 0 24 24" fill="none" xmlns="http://www.w3.org/2000/svg">
<path d="M5.18287 3.00012C3.86298 3.00012 3 3.86683 3 5.00601C3 6.12002 3.83727 7.01145 5.13223 7.01145H5.15728C6.50299 7.01145 7.34048 6.12002 7.34048 5.00601C7.31532 3.86683 6.50299 3.00012 5.18287 3.00012Z" fill="#F7F7F7"/>
<path d="M3.22815 8.59656H7.08677V20.2054H3.22815V8.59656Z" fill="#F7F7F7"/>
<path d="M16.5578 8.32397C14.4762 8.32397 13.0804 10.28 13.0804 10.28V8.59644H9.22168V20.2053H13.0802V13.7224C13.0802 13.3754 13.1053 13.0289 13.2073 12.7807C13.4862 12.0877 14.121 11.3697 15.187 11.3697C16.5833 11.3697 17.1417 12.4343 17.1417 13.9949V20.2053H21V13.549C21 9.98324 19.0963 8.32397 16.5578 8.32397Z" fill="#F7F7F7"/>
</svg>
