<svg width="24" height="24" viewBox="0 0 24 24" fill="none" xmlns="http://www.w3.org/2000/svg">
<path d="M8.28983 19.9999C15.8374 19.9999 19.9648 13.8448 19.9648 8.5075C19.9648 8.33268 19.9611 8.15859 19.9532 7.98546C20.7543 7.41527 21.4506 6.70373 22 5.89383C21.2648 6.21564 20.4735 6.432 19.6436 6.52988C20.4907 6.02963 21.1412 5.23863 21.4479 4.29569C20.6551 4.75837 19.777 5.09452 18.8424 5.27608C18.0936 4.49097 17.0274 4 15.847 4C13.5811 4 11.7435 5.80883 11.7435 8.03856C11.7435 8.35568 11.7795 8.66389 11.8499 8.95958C8.43954 8.79067 5.41534 7.18351 3.39175 4.73947C3.0395 5.33627 2.83622 6.02975 2.83622 6.76971C2.83622 8.17087 3.56066 9.40818 4.66217 10.1318C3.98898 10.1114 3.35665 9.92949 2.80381 9.6267C2.8032 9.64367 2.8032 9.66017 2.8032 9.67823C2.8032 11.6344 4.21757 13.2677 6.09538 13.6378C5.75047 13.7301 5.38758 13.7799 5.01331 13.7799C4.74937 13.7799 4.49203 13.7543 4.24204 13.707C4.76442 15.3119 6.27933 16.4797 8.07531 16.5125C6.67084 17.5961 4.90165 18.2415 2.97883 18.2415C2.64811 18.2415 2.32118 18.2228 2 18.1855C3.81604 19.3313 5.97246 20 8.28996 20" fill="#F7F7F7"/>
</svg>
